<svg width="410" height="348" viewBox="0 0 410 348" fill="none" xmlns="http://www.w3.org/2000/svg">
<path d="M104.738 191.924L172.736 188.636C172.736 188.636 232.552 164.651 260.394 212.72C288.236 260.789 208.634 321.111 208.634 321.111L180.645 315.177L196.716 254.898C196.716 254.898 128.02 271.936 104.738 191.924Z" fill="#164900"/>
<path d="M104.738 191.924L104.704 191.226C104.491 191.236 104.293 191.344 104.169 191.518C104.044 191.692 104.007 191.914 104.067 192.12L104.738 191.924ZM172.736 188.636L172.77 189.334L172.888 189.329L172.997 189.285L172.736 188.636ZM208.634 321.111L208.489 321.796L208.802 321.862L209.057 321.669L208.634 321.111ZM180.645 315.177L179.969 314.997L179.779 315.709L180.5 315.861L180.645 315.177ZM196.716 254.898L197.392 255.078L197.697 253.934L196.548 254.219L196.716 254.898ZM104.772 192.623L172.77 189.334L172.703 187.937L104.704 191.226L104.772 192.623ZM208.779 320.427L180.79 314.493L180.5 315.861L208.489 321.796L208.779 320.427ZM181.321 315.357L197.392 255.078L196.04 254.718L179.969 314.997L181.321 315.357ZM196.716 254.898C196.548 254.219 196.548 254.219 196.548 254.219C196.548 254.219 196.547 254.219 196.546 254.22C196.545 254.22 196.542 254.221 196.539 254.222C196.531 254.223 196.52 254.226 196.504 254.23C196.473 254.237 196.426 254.248 196.363 254.263C196.237 254.291 196.047 254.333 195.797 254.385C195.298 254.488 194.559 254.63 193.608 254.783C191.706 255.09 188.957 255.44 185.583 255.612C178.834 255.956 169.6 255.588 159.65 252.743C139.796 247.067 116.983 231.503 105.41 191.729L104.067 192.12C115.775 232.357 138.951 248.28 159.266 254.088C169.4 256.986 178.795 257.359 185.654 257.009C189.085 256.834 191.885 256.478 193.83 256.165C194.803 256.008 195.563 255.862 196.081 255.755C196.34 255.701 196.539 255.657 196.674 255.627C196.742 255.611 196.793 255.599 196.828 255.591C196.846 255.586 196.86 255.583 196.869 255.581C196.874 255.58 196.877 255.579 196.88 255.578C196.881 255.578 196.882 255.578 196.883 255.577C196.884 255.577 196.885 255.577 196.716 254.898ZM172.736 188.636C172.997 189.285 172.997 189.285 172.997 189.285C172.997 189.285 172.998 189.284 172.998 189.284C173 189.284 173.002 189.283 173.006 189.281C173.012 189.279 173.022 189.275 173.036 189.269C173.063 189.259 173.105 189.242 173.16 189.221C173.271 189.178 173.438 189.115 173.657 189.034C174.095 188.873 174.744 188.641 175.582 188.363C177.257 187.806 179.685 187.062 182.686 186.318C188.691 184.83 196.98 183.345 206.124 183.352C224.402 183.364 246.033 189.322 259.789 213.071L260.999 212.37C246.913 188.049 224.715 181.965 206.125 181.953C196.835 181.946 188.429 183.454 182.349 184.96C179.308 185.714 176.845 186.468 175.14 187.035C174.288 187.319 173.625 187.555 173.173 187.722C172.947 187.805 172.775 187.871 172.658 187.916C172.599 187.938 172.554 187.956 172.524 187.968C172.509 187.973 172.497 187.978 172.489 187.981C172.485 187.983 172.482 187.984 172.48 187.985C172.479 187.985 172.478 187.986 172.477 187.986C172.477 187.986 172.476 187.986 172.736 188.636ZM259.789 213.071C266.633 224.886 266.889 237.464 263.38 249.743C259.867 262.038 252.585 274.003 244.403 284.512C236.225 295.015 227.175 304.028 220.166 310.418C216.662 313.612 213.671 316.148 211.556 317.885C210.499 318.753 209.661 319.422 209.089 319.873C208.802 320.098 208.582 320.269 208.434 320.383C208.36 320.44 208.304 320.483 208.267 320.512C208.248 320.526 208.234 320.537 208.225 320.544C208.22 320.547 208.217 320.55 208.215 320.552C208.214 320.552 208.213 320.553 208.212 320.553C208.212 320.554 208.212 320.554 208.634 321.111C209.057 321.669 209.057 321.668 209.058 321.668C209.058 321.667 209.059 321.667 209.061 321.666C209.063 321.664 209.067 321.661 209.072 321.657C209.082 321.649 209.097 321.638 209.117 321.623C209.156 321.593 209.213 321.549 209.289 321.491C209.44 321.374 209.664 321.2 209.954 320.972C210.534 320.515 211.379 319.841 212.444 318.966C214.574 317.216 217.584 314.664 221.108 311.452C228.154 305.029 237.265 295.957 245.507 285.371C253.745 274.791 261.143 262.663 264.725 250.127C268.311 237.577 268.077 224.589 260.999 212.37L259.789 213.071Z" fill="black"/>
<path d="M209.917 320.165L181.951 311.296L171.173 335.067C171.173 335.067 195.116 343.331 211.202 343.925L203.366 335.107L209.917 320.165Z" fill="#EEEEEE" stroke="black" stroke-width="1.39887" stroke-linejoin="round"/>
<path d="M101.976 194.289L191.716 193.531C191.716 193.531 254.829 206.566 251.497 262.016C248.164 317.466 148.489 323.799 148.489 323.799L128.431 303.395L177.952 255.966C177.952 255.966 110.448 271.234 101.976 194.289Z" fill="#164900" stroke="black" stroke-width="1.39887"/>
<path d="M150.081 323.718L131.664 300.882L109.551 314.748C109.551 314.748 124.949 334.859 138.032 344.237L136.369 332.559L150.081 323.718Z" fill="#EEEEEE" stroke="black" stroke-width="1.39887" stroke-linejoin="round"/>
<path fill-rule="evenodd" clip-rule="evenodd" d="M115.895 100.203C117.706 98.9407 119.331 97.3662 120.68 95.4208C130.859 80.735 120.743 65.3291 110.454 58.6394C100.165 51.9497 52.4186 68.3593 86.183 103.034C86.2955 103.066 86.41 103.099 86.5263 103.131C91.2576 110.62 90.9494 118.2 90.5797 127.295C90.4289 131.004 90.2678 134.966 90.4343 139.276L114.325 131.077C118.61 120.214 118.72 110.379 115.895 100.203Z" fill="#F5B9AB"/>
<path d="M120.68 95.4208L121.255 95.8193L121.255 95.8193L120.68 95.4208ZM115.895 100.203L115.495 99.6293C115.252 99.7991 115.142 100.104 115.221 100.39L115.895 100.203ZM110.454 58.6394L110.835 58.053L110.835 58.053L110.454 58.6394ZM86.183 103.034L85.6819 103.521C85.7662 103.608 85.8716 103.671 85.9876 103.705L86.183 103.034ZM86.5263 103.131L87.1176 102.758C87.025 102.611 86.8813 102.504 86.7143 102.458L86.5263 103.131ZM90.5797 127.295L91.2786 127.323L91.2786 127.323L90.5797 127.295ZM90.4343 139.276L89.7354 139.303C89.744 139.524 89.8565 139.728 90.0389 139.853C90.2214 139.978 90.4522 140.01 90.6614 139.938L90.4343 139.276ZM114.325 131.077L114.553 131.739C114.746 131.672 114.901 131.524 114.976 131.334L114.325 131.077ZM120.105 95.0224C118.807 96.8951 117.242 98.4115 115.495 99.6293L116.295 100.777C118.17 99.4699 119.856 97.8373 121.255 95.8193L120.105 95.0224ZM110.073 59.2258C115.115 62.5045 120.109 67.9201 122.591 74.2856C125.06 80.6208 125.046 87.8945 120.105 95.0224L121.255 95.8193C126.493 88.2613 126.51 80.4891 123.894 73.7775C121.29 67.0962 116.081 61.464 110.835 58.053L110.073 59.2258ZM86.6841 102.546C78.3099 93.9457 75.0902 86.5797 74.9834 80.5157C74.877 74.4712 77.8618 69.5641 82.2497 65.8594C86.6459 62.1477 92.4115 59.6825 97.7173 58.562C100.367 58.0024 102.882 57.7827 105.033 57.9025C107.198 58.023 108.931 58.4835 110.073 59.2258L110.835 58.053C109.404 57.1229 107.395 56.6329 105.111 56.5057C102.814 56.3779 100.174 56.6136 97.4283 57.1934C91.9431 58.3518 85.9532 60.9018 81.3473 64.7906C76.7329 68.6864 73.469 73.965 73.5848 80.5403C73.7002 87.0962 77.1739 94.7842 85.6819 103.521L86.6841 102.546ZM86.7143 102.458C86.6004 102.426 86.4884 102.394 86.3783 102.362L85.9876 103.705C86.1026 103.739 86.2196 103.772 86.3384 103.805L86.7143 102.458ZM91.2786 127.323C91.647 118.259 91.9822 110.457 87.1176 102.758L85.935 103.505C90.5329 110.782 90.2518 118.141 89.8808 127.266L91.2786 127.323ZM91.1333 139.249C90.968 134.971 91.1277 131.035 91.2786 127.323L89.8808 127.266C89.7301 130.973 89.5677 134.961 89.7354 139.303L91.1333 139.249ZM114.098 130.416L90.2073 138.615L90.6614 139.938L114.553 131.739L114.098 130.416ZM115.221 100.39C118.009 110.431 117.9 120.109 113.675 130.821L114.976 131.334C119.321 120.319 119.432 110.328 116.569 100.016L115.221 100.39Z" fill="black"/>
<path d="M75.2916 79.5765C72.8859 85.8884 80.4608 97.8955 84.3574 100.368C55.5726 93.0945 63.1339 57.4679 72.3951 61.1449C70.5786 49.1955 82.8203 41.5654 94.509 48.9808C112.413 24.5488 121.918 55.5761 115.141 62.4737C108.365 69.3713 97.4071 67.4169 92.9962 71.2166C88.5853 75.0163 89.4075 90.7338 85.5775 82.9044C81.7476 75.0749 78.2988 71.6866 75.2916 79.5765Z" fill="#443603" stroke="black" stroke-width="1.39887"/>
<path d="M193.864 190.474C206.62 161.084 165.652 131.102 156.616 124.944C155.454 124.152 154.275 123.457 153.047 122.774C129.53 109.713 96.4347 108.004 84.3875 132.056C63.3294 174.098 115.829 217.99 135.22 245.947L193.864 190.474Z" fill="#EEEEEE"/>
<path d="M156.616 124.944L157.009 124.366L156.616 124.944ZM193.864 190.474L194.345 190.982L194.449 190.884L194.506 190.753L193.864 190.474ZM135.22 245.947L134.645 246.346C134.761 246.513 134.945 246.622 135.148 246.643C135.351 246.664 135.552 246.595 135.701 246.455L135.22 245.947ZM84.3875 132.056L83.7621 131.743L84.3875 132.056ZM153.047 122.774L153.386 122.163L153.047 122.774ZM156.222 125.522C160.722 128.588 173.157 137.579 182.871 149.44C192.609 161.332 199.435 175.882 193.223 190.196L194.506 190.753C201.049 175.677 193.769 160.54 183.953 148.554C174.112 136.537 161.546 127.457 157.009 124.366L156.222 125.522ZM193.384 189.966L134.739 245.439L135.701 246.455L194.345 190.982L193.384 189.966ZM135.795 245.548C130.923 238.525 123.976 230.505 116.671 221.819C109.352 213.117 101.654 203.723 95.2206 193.9C82.337 174.227 74.6598 153.039 85.0129 132.369L83.7621 131.743C73.0571 153.115 81.1008 174.893 94.0503 194.666C100.534 204.566 108.28 214.015 115.6 222.719C122.935 231.44 129.821 239.391 134.645 246.346L135.795 245.548ZM152.707 123.386C153.926 124.063 155.085 124.747 156.222 125.522L157.009 124.366C155.824 123.558 154.624 122.851 153.386 122.163L152.707 123.386ZM153.386 122.163C141.53 115.578 127.242 111.842 114.364 112.8C101.469 113.76 89.9239 119.441 83.7621 131.743L85.0129 132.369C90.8983 120.619 101.925 115.129 114.468 114.195C127.028 113.261 141.046 116.91 152.707 123.386L153.386 122.163Z" fill="black"/>
<path d="M209.68 175.269L189.339 151.321L159.777 174.347C155.091 140.601 117.546 113.393 103.019 117.16C63.9657 127.288 108.244 214.939 136.492 227.623C164.74 240.306 209.68 175.269 209.68 175.269Z" fill="#EEEEEE" stroke="black" stroke-width="1.39887"/>
<path d="M191.103 149.384L188.521 151.96L209.19 175.973L213.409 171.775C220.485 164.737 219.345 152.983 211.049 147.435C204.786 143.247 196.437 144.063 191.103 149.384Z" fill="#F5B9AB" stroke="black" stroke-width="1.39887" stroke-linejoin="round"/>
<path fill-rule="evenodd" clip-rule="evenodd" d="M87.9357 243.365C87.6059 243.28 87.2739 243.522 87.2745 243.863L87.4334 335.039H69.1884C68.911 335.039 68.6862 335.264 68.6862 335.542L68.6862 346.641C68.6862 346.918 68.911 347.143 69.1884 347.143H121.094C121.372 347.143 121.597 346.918 121.597 346.641V335.542C121.597 335.264 121.372 335.039 121.094 335.039H101.279V243.388C101.279 243.089 101.019 242.856 100.722 242.89C99.7274 243.004 98.7938 243.121 97.9107 243.232C93.8485 243.744 90.8552 244.121 87.9357 243.365Z" fill="#164900"/>
<path d="M87.2745 243.863L86.5751 243.864V243.864L87.2745 243.863ZM87.9357 243.365L88.1111 242.688V242.688L87.9357 243.365ZM87.4334 335.039V335.739H88.134L88.1328 335.038L87.4334 335.039ZM68.6862 335.542H69.3856H68.6862ZM68.6862 346.641H67.9867H68.6862ZM101.279 335.039H100.58V335.739H101.279V335.039ZM100.722 242.89L100.642 242.195V242.195L100.722 242.89ZM97.9107 243.232L97.8233 242.539L97.9107 243.232ZM87.974 243.862C87.9741 243.93 87.938 243.986 87.8992 244.015C87.8623 244.042 87.8112 244.055 87.7603 244.042L88.1111 242.688C87.3663 242.495 86.5736 243.037 86.5751 243.864L87.974 243.862ZM88.1328 335.038L87.974 243.862L86.5751 243.864L86.7339 335.041L88.1328 335.038ZM69.1884 335.739H87.4334V334.34H69.1884V335.739ZM69.3856 335.542C69.3856 335.65 69.2973 335.739 69.1884 335.739V334.34C68.5247 334.34 67.9867 334.878 67.9867 335.542H69.3856ZM69.3856 346.641L69.3856 335.542H67.9867L67.9867 346.641H69.3856ZM69.1884 346.444C69.2973 346.444 69.3856 346.532 69.3856 346.641H67.9867C67.9867 347.305 68.5247 347.842 69.1884 347.842V346.444ZM121.094 346.444H69.1884V347.842H121.094V346.444ZM120.897 346.641C120.897 346.532 120.986 346.444 121.094 346.444V347.842C121.758 347.842 122.296 347.305 122.296 346.641H120.897ZM120.897 335.542V346.641H122.296V335.542H120.897ZM121.094 335.739C120.986 335.739 120.897 335.65 120.897 335.542H122.296C122.296 334.878 121.758 334.34 121.094 334.34V335.739ZM101.279 335.739H121.094V334.34H101.279V335.739ZM100.58 243.388V335.039H101.978V243.388H100.58ZM100.801 243.585C100.682 243.599 100.58 243.505 100.58 243.388H101.978C101.978 242.673 101.356 242.113 100.642 242.195L100.801 243.585ZM97.9981 243.926C98.8816 243.815 99.8115 243.698 100.801 243.585L100.642 242.195C99.6434 242.309 98.706 242.427 97.8233 242.539L97.9981 243.926ZM87.7603 244.042C90.8348 244.838 93.9714 244.434 97.9981 243.926L97.8233 242.539C93.7256 243.055 90.8756 243.404 88.1111 242.688L87.7603 244.042Z" fill="black"/>
<path d="M66.389 152.489C78.3221 180.932 55.9099 191.354 56.1711 210.261C56.5326 236.428 99.2064 261.675 125.913 207.003" stroke="black" stroke-width="1.39887"/>
<rect x="18.3706" y="97.6158" width="32.5071" height="105.129" rx="15.8191" transform="rotate(-22.7603 18.3706 97.6158)" fill="#164900" stroke="black" stroke-width="1.39887"/>
<rect x="312.189" y="205.009" width="15.5619" height="142.132" rx="0.502194" fill="#164900" stroke="black" stroke-width="1.39887"/>
<rect x="195.858" y="204.364" width="52.107" height="112.515" rx="24.5617" transform="rotate(88.7489 195.858 204.364)" fill="#164900" stroke="black" stroke-width="1.39887"/>
<rect x="407.968" y="177.752" width="32.5071" height="176.822" rx="15.8191" transform="rotate(88.7489 407.968 177.752)" fill="#164900" stroke="black" stroke-width="1.39887"/>
<rect x="382.425" y="92.6036" width="82.9969" height="15.5619" rx="2.00878" transform="rotate(105 382.425 92.6036)" fill="#164900" stroke="black" stroke-width="1.39887"/>
<rect x="281.245" y="164.656" width="82.9969" height="15.5619" rx="2.00878" fill="#EEEEEE" stroke="black" stroke-width="1.39887"/>
</svg>
